<svg width="432" height="216" viewBox="0 0 114.3 57.15" xmlns="http://www.w3.org/2000/svg">
  <rect width="114.3" height="57.15" fill="#006747"/>
  <path d="m 1.3423456e-6,13.49375 v 30.1625 H 114.3 v -30.1625" fill="#000"/>
  <path d="m 1.3423456e-6,15.08125 v 26.9875 H 114.3 v -26.9875" fill="#012169"/>
  <path d="m 58.210797,29.203338 -1.061658,-3.347448 -1.057938,3.347448 -3.511162,-0.02729 2.856308,2.04022 -1.111269,3.331325 2.824061,-2.084869 2.82406,2.084869 -1.108788,-3.331325 2.855067,-2.04022 z" fill="#fff"/>
  <path d="m 58.68296,16.139585 0.0087,0.02853 -1.541637,5.20535 -1.532955,-5.233876 C 39.105535,19.671831 46.565669,34.0129 48.543875,37.768392 l -4.012225,3.242027 7.102941,-2.47927 v -9.362685 c 0,-3.043586 2.465627,-5.510453 5.510453,-5.510453 3.043586,0 5.510453,2.466867 5.510453,5.510453 l 0.0099,9.362685 7.10294,2.47927 -4.009744,-3.242027 C 67.734341,34.0129 75.195715,19.671831 58.68296,16.139585" fill="#fff"/>
</svg>
